<svg id="Capa_1" enable-background="new 0 0 512 512" height="512" viewBox="0 0 512 512" width="512" xmlns="http://www.w3.org/2000/svg"><path d="m427.286 155.082-171.286-98.38-171.286 98.38v201.836l171.286 98.38 171.286-98.38zm-45.089 8.699-126.197 72.482-126.197-72.482 126.197-72.483zm-267.483 25.929 126.286 72.534v149.842l-126.286-72.534zm156.286 222.376v-149.842l126.286-72.534v149.842z"/><path d="m30 30h82.521v-30h-112.521v112.217h30z"/><path d="m30 399.479h-30v112.521h112.217v-30h-82.217z"/><path d="m399.479 0v30h82.521v82.217h30v-112.217z"/><path d="m482 482h-82.217v30h112.217v-112.521h-30z"/></svg>